<?xml version="1.0" standalone="no"?>
<!DOCTYPE svg PUBLIC "-//W3C//DTD SVG 20010904//EN"
 "http://www.w3.org/TR/2001/REC-SVG-20010904/DTD/svg10.dtd">
<svg version="1.0" xmlns="http://www.w3.org/2000/svg"
 width="500.000000pt" height="500.000000pt" viewBox="0 0 500.000000 500.000000"
 preserveAspectRatio="xMidYMid meet">
<metadata>
Created by potrace 1.14, written by Peter Selinger 2001-2017
</metadata>
<g transform="translate(0.000000,500.000000) scale(0.100000,-0.100000)"
fill="#000000" stroke="none">
<path d="M2743 4025 l-81 -65 -17 -72 c-73 -321 -341 -1578 -391 -1830 -10
-55 -21 -88 -29 -88 -23 0 -134 80 -171 123 -52 60 -91 132 -117 212 -31 97
-30 332 1 446 53 195 189 357 393 467 38 20 69 42 69 49 0 22 -33 83 -46 83
-18 0 -166 -65 -222 -97 -249 -143 -400 -320 -474 -553 -20 -65 -23 -96 -23
-225 0 -171 13 -233 73 -355 54 -110 169 -223 282 -279 47 -22 110 -47 140
-54 29 -8 56 -19 58 -25 2 -7 -20 -125 -48 -264 -47 -228 -51 -262 -47 -348 5
-107 25 -169 65 -201 21 -16 28 -17 37 -7 7 7 47 174 89 370 43 196 83 379 90
405 l12 48 55 8 c248 37 429 126 580 283 105 111 166 214 211 354 20 67 23 94
23 245 -1 157 -3 176 -28 250 -65 196 -188 332 -405 449 l-77 42 3 54 c1 30
31 179 66 330 l63 275 -21 17 c-12 10 -23 17 -26 17 -3 0 -42 -29 -87 -64z
m26 -876 c109 -73 210 -222 246 -364 23 -90 21 -274 -5 -382 -32 -134 -80
-225 -164 -308 -80 -80 -162 -127 -257 -150 -73 -17 -169 -20 -169 -5 0 17
255 1208 265 1238 7 19 18 15 84 -29z"/>
</g>
</svg>
